<svg width="37" height="35" xmlns="http://www.w3.org/2000/svg">
  <path d="M8.5006 28.4561H6.3794c-.6495 0-1.176-.5265-1.176-1.1761V4.619c0-1.624 1.3164-2.9404 2.9403-2.9404h6.4562V0h7.5046v1.6786h6.4563c1.6239 0 2.9403 1.3165 2.9403 2.9404V27.28c0 .6495-.5265 1.176-1.1761 1.176h-2.1212L36.7045 35H31.24l-6.66-6.5439H12.1244L5.4643 35H0l8.5006-6.5439zm3.6237-3.7083c0-.9951-.8067-1.802-1.802-1.802-.9951 0-1.8018.8068-1.8018 1.802 0 .9952.8067 1.802 1.8019 1.802.9952 0 1.8019-.8069 1.8019-1.802zm14.132 1.802c.9952 0 1.802-.8068 1.802-1.802 0-.9951-.8068-1.802-1.802-1.802-.9951 0-1.8019.8068-1.8019 1.802 0 .9951.8068 1.802 1.802 1.802zm1.7305-9.3171a.588.588 0 0 0 .588-.588V5.257a.588.588 0 0 0-.588-.588H8.7176a.588.588 0 0 0-.588.588v11.3876a.588.588 0 0 0 .588.588h19.2692z" fill="#FFF" fill-rule="nonzero"/>
</svg>
