<svg width="22" height="17" xmlns="http://www.w3.org/2000/svg"><g fill="#6f7bc6" fill-rule="evenodd"><path fill-rule="nonzero" d="M1.692 16h20v1h-20zM10.543 15.295H9.55a.553.553 0 0 1-.55-.556V4.019c0-.769.616-1.392 1.376-1.392h3.022v-.794h3.512v.794h3.022c.76 0 1.376.623 1.376 1.391v10.72a.553.553 0 0 1-.55.557H10.543zm1.919-1.539a.77.77 0 1 0-1.539 0 .77.77 0 0 0 1.539 0zm6.538.77a.77.77 0 1 0 0-1.539.77.77 0 0 0 0 1.539zm.504-4.616c.146 0 .265-.129.265-.288V4.044c0-.159-.119-.288-.265-.288h-8.7c-.147 0-.266.13-.266.288v5.578c0 .16.12.288.266.288h8.7z"/><path fill-rule="nonzero" d="M3.615 6.385h1.154V16.77H3.615z"/><path d="M4.192 6.885a3.385 3.385 0 1 1 0-6.77 3.385 3.385 0 0 1 0 6.77zm0-1a2.385 2.385 0 1 0 0-4.77 2.385 2.385 0 0 0 0 4.77z" fill-rule="nonzero"/><path d="M3.423 2.538h1.254c.274 0 .478.065.614.195s.204.315.204.555c0 .247-.074.44-.222.578-.148.139-.374.208-.679.208h-.413v.907h-.758V2.538zm.758 1.042h.185c.145 0 .248-.026.307-.076a.244.244 0 0 0 .088-.194.271.271 0 0 0-.077-.195c-.05-.053-.147-.08-.288-.08h-.215v.545z"/></g></svg>