<?xml version="1.0" encoding="iso-8859-1"?>
<!-- Generator: Adobe Illustrator 18.1.1, SVG Export Plug-In . SVG Version: 6.00 Build 0)  -->
<svg xmlns="http://www.w3.org/2000/svg" xmlns:xlink="http://www.w3.org/1999/xlink" version="1.1" id="Capa_1" x="0px" y="0px" viewBox="0 0 512 512" style="enable-background:new 0 0 512 512;" xml:space="preserve" width="512px" height="512px">
<g>
	<g>
		<g>
			<path d="M436.5,75c-50-50-110.333-75-181-75S124.667,25,75,75S0.5,185,0.5,255l2,257h58V255     c0-54.667,18.833-101.5,56.5-140.5S200.833,56,255.5,56S356.333,75.5,394,114.5s56.5,86.167,56.5,141.5v256h61V255     C511.5,185,486.5,125,436.5,75z" fill="#006DF0"/>
			<path d="M338.5,417l1-1c8.667-3.334,16.667-7.667,24-13c6.667-5.333,11.333-13.333,14-24     c0.667-3.333,1-6,1-8V157c0-5.336-1.333-10.669-4-16c-3.333-5.333-7-10-11-14s-9-7.667-15-11c-4.667-2-10-3-16-3h-16h-122h-15     c-6,0-11.333,1-16,3c-6,3.333-11.167,6.833-15.5,10.5c-4.334,3.667-8.167,8.167-11.5,13.5c-2.667,5.333-4,10.667-4,16v217     c0,4,0.667,7.667,2,11c2.667,4.667,5,8.333,7,11c2.667,4,5.667,7.333,9,10s6.333,5,9,7c2,0.667,4.667,1.667,8,3l4.5,1.5     c1,0.333,1.167,0.5,0.5,0.5l-62,95h36l46-61h126l46,61h36l-61-93L338.5,417z M204.5,133c0-2.667,1-5,3-7s4.333-3,7-3h82     c2.667,0,5,1,7,3s3,4.333,3,7v10c0,3.333-1,6-3,8s-4.333,3-7,3h-82c-2.667,0-5-1-7-3s-3-4.667-3-8V133z M163.5,192v-9     c2-4,3.667-6.667,5-8c4-4.667,6.333-7,7-7c4.667-2.667,7.667-4,9-4h10h122h10l8,3c1.338,0.667,3.672,2.667,7,6     c0.667,0.667,2.333,3,5,7c0.667,1.333,1,4,1,8v49c0,3.333-0.333,6-1,8c-2,2.667-4,5-6,7c-0.667,0-3,1-7,3c-1.333,0.667-4,1-8,1     h-140l-1,0.5c-0.667,0.333-1.167,0.5-1.5,0.5s-0.833-0.167-1.5-0.5l-1-0.5c-4.667-0.668-9-3.334-13-8c-2.667-3.333-4-8-4-14V192z      M202.5,380.5c-4.667,5-10.5,7.5-17.5,7.5s-12.667-2.5-17-7.5s-6.5-10.833-6.5-17.5s2.333-12.333,7-17s10.333-7,17-7     s12.334,2.167,17,6.5c4.667,4.333,7,10.167,7,17.5C209.5,369.667,207.167,375.5,202.5,380.5z M307.5,380.5c-4.667-5-7-11-7-18     s2.5-12.667,7.5-17s10.833-6.5,17.5-6.5s12.333,2.333,17,7s7,10.333,7,17s-2.333,12.5-7,17.5S332,388,325,388     S312.167,385.5,307.5,380.5z" fill="#006DF0"/>
		</g>
	</g>
</g>
<g>
</g>
<g>
</g>
<g>
</g>
<g>
</g>
<g>
</g>
<g>
</g>
<g>
</g>
<g>
</g>
<g>
</g>
<g>
</g>
<g>
</g>
<g>
</g>
<g>
</g>
<g>
</g>
<g>
</g>
</svg>
